# xmcd
#
# Track frame offsets:
#	150
#	11930
#	24134
#	36629
#	46945
#	59762
#	72089
#	83306
#	92345
#	106523
#	119694
#	130095
#	141626
#	152767
#	162254
#	175678
#	185393
#	198083
#	208252
#	216845
#	227840
#	236838
#	248388
#
# Disc length: 3494 seconds
#
# Revision: 1
# Processed by: cddbd v1.5.2PL0 Copyright (c) Steve Scherf et al.
# Submitted via: audiograbber 1.83.01
#
DISCID=380da417
DTITLE=Various Artist - Stompin' - Volume 30
DYEAR=1900
DGENRE=Blues
TTITLE0=Little Luther - Doggin' Me
TTITLE1=John Brim - I Would Hate To See You Go
TTITLE2=Sonny Boy Williamson - The Hunt
TTITLE3=Lightnin' Hopkins - Had A Gal Called Sal
TTITLE4=Chris Kenner - Don't Let Her Pin That Charge On Me
TTITLE5=John Brim - Go Away
TTITLE6=Willie King - Peg Leg Woman
TTITLE7=Little Walter - Crazy Mixed Up World
TTITLE8=Jesse Knight - Nothing But Money
TTITLE9=Little Shy Guy - Let's Rock'n'Roll
TTITLE10=Lightnin' Hopkins - Movin' On Out Boogie
TTITLE11=Little Luther - Automatic Baby
TTITLE12=Junior Wells - Cha Cha Cha In Blue
TTITLE13=Calvin Johnson - Unsatisfied Mind
TTITLE14=John Brim - You Got Me Where You Want Me
TTITLE15=Junior Wells - Lovey Dovey Lovey One
TTITLE16=Little Willie Brown - Cut It Out
TTITLE17=Thomas "Little Junior" Cannaday - Hello
TTITLE18=Brooks Orrick - Mama Blues
TTITLE19=Crooks Junior - Wiggle It Baby
TTITLE20=Little Shy Guy - Little Girl
TTITLE21=Soldier Boy Houston - Hug Me Baby
TTITLE22=Memphis Minnie - Me And My Chauffer
EXTD=23 Rockin' Blues Monsters
EXTT0=
EXTT1=
EXTT2=
EXTT3=
EXTT4=
EXTT5=
EXTT6=
EXTT7=
EXTT8=
EXTT9=
EXTT10=
EXTT11=
EXTT12=
EXTT13=
EXTT14=
EXTT15=
EXTT16=
EXTT17=
EXTT18=
EXTT19=
EXTT20=
EXTT21=
EXTT22=
PLAYORDER=
